HIERARCHY
ROOT pelvis
{
  OFFSET 0 100 0
  CHANNELS 6 Xposition Yposition Zposition Zrotation Xrotation Yrotation
  JOINT pelvis_right_femur
  {
    OFFSET -10.78128 -3.44521 -0.5502486
    CHANNELS 3 Zrotation Xrotation Yrotation
    JOINT right_femur_tibia
    {
      OFFSET -0.8047443 -44.0398 -0.1307829
      CHANNELS 3 Zrotation Xrotation Yrotation
      JOINT right_tibia_foot
      {
        OFFSET 3.006224 -47.83518 -5
        CHANNELS 3 Zrotation Xrotation Yrotation
        End Site
        {
          OFFSET 0 -5 15
        }
      }
    }
  }
  JOINT pelvis_left_femur
  {
    OFFSET 10.78128 -3.44521 -0.5502486
    CHANNELS 3 Zrotation Xrotation Yrotation
    JOINT left_femur_tibia
    {
      OFFSET 0.8047443 -44.0398 -0.1307829
      CHANNELS 3 Zrotation Xrotation Yrotation
      JOINT left_tibia_foot
      {
        OFFSET -4.370144 -48.10324 -4.275266
        CHANNELS 3 Zrotation Xrotation Yrotation
        End Site
        {
          OFFSET 0 -5 15
        }
      }
    }
  }
  JOINT pelvis_spine1
  {
    OFFSET 0 6.468898 -3.129235
    CHANNELS 3 Zrotation Xrotation Yrotation
    JOINT spine1
    {
      OFFSET 0 23.15396 4.99043
      CHANNELS 3 Zrotation Xrotation Yrotation
      JOINT spine2
      {
        OFFSET 0 20.79997 -5.064912
        CHANNELS 3 Zrotation Xrotation Yrotation
        JOINT neck
        {
          OFFSET 0 14.38658 9.616178
          CHANNELS 3 Zrotation Xrotation Yrotation
          End Site
          {
            OFFSET 0 20 0
          }
        }
      }
      JOINT right_manubrium
      {
        OFFSET -5.722621 16.35077 3.967754
        CHANNELS 3 Zrotation Xrotation Yrotation
        JOINT right_clavicle
        {
          OFFSET -13.16364 1.694482 -4.693211
          CHANNELS 3 Zrotation Xrotation Yrotation
          JOINT right_humerus
          {
            OFFSET -28.5034 -0.3100689 -2.792744
            CHANNELS 3 Zrotation Xrotation Yrotation
            JOINT right_radius
            {
              OFFSET -25.15693 0.02248979 -1.271978
              CHANNELS 3 Zrotation Xrotation Yrotation
              End Site
              {
                OFFSET -15 0 0
              }
            }
          }
        }
      }
      JOINT left_manubrium
      {
        OFFSET 5.722621 16.35077 3.967754
        CHANNELS 3 Zrotation Xrotation Yrotation
        JOINT left_clavicle
        {
          OFFSET 13.16364 1.694482 -4.693211
          CHANNELS 3 Zrotation Xrotation Yrotation
          JOINT left_humerus
          {
            OFFSET 29.39168 -1.063119 -2.237045
            CHANNELS 3 Zrotation Xrotation Yrotation
            JOINT left_radius
            {
              OFFSET 24.59957 -0.9528479 0.9047498
              CHANNELS 3 Zrotation Xrotation Yrotation
              End Site
              {
                OFFSET 15 -0 -0
              }
            }
          }
        }
      }
    }
  }
}
MOTION
Frames: 7
Frame Time: 0.0416666666667
0 103.5113 0 0.8197201 -1.04654 0.05971651 3.190866 -15.64882 8.697668 -0 39.29752 -0 -6.55714 -15.85404 -2.884331 -7.308654 6.097629 -23.38023 -0 4.57357 -0 7.09856 -18.2001 26.48334 -1.220556 -1.998481 4.081326 2.412262 10.12674 -7.720892 0.8633369 21.59949 6.624412 3.948707 -24.79169 7.367638 3.796377 -19.85876 11.69066 87.92338 31.32225 -20.04736 -0 0 13.46905 -11.88562 9.149504 6.782009 5.638042 -22.17167 -3.46299 -93.36344 25.50134 22.68695 0 0 -17.92385 6.044194 16.80916 6.891413
0.3703497 103.466 0.7607443 0.7683187 -0.8795394 0.1081939 3.469342 -17.63913 8.814132 -0 39.15498 -0 -6.698045 -15.57483 -3.115568 -7.291091 7.93518 -23.66732 -0 5.454509 -0 7.159476 -18.644 26.32755 -1.132526 -2.20974 3.96565 2.579794 10.36643 -8.072005 0.7463145 21.43978 6.713325 4.035352 -25.16893 7.341582 3.792345 -19.93728 11.80778 88.63279 31.32238 -21.17472 -0 0 12.96615 -11.66567 9.242872 6.455753 5.764967 -22.82523 -3.671068 -93.08709 25.145 22.42737 0 0 -18.89164 6.781372 17.10094 6.03001
0.6902297 103.4409 2.004851 0.7674614 -1.186455 0.2899773 3.310744 -19.80072 8.034437 -0 39.38833 -0 -6.236244 -13.15648 -3.523398 -7.140032 10.37668 -22.71595 -0 6.447758 -0 6.204627 -19.28023 24.99793 -1.210935 -2.084359 3.886096 2.575873 10.13319 -8.007544 0.8016433 21.53071 6.720557 4.016099 -25.07488 7.413767 3.880394 -19.63745 11.70791 88.49705 31.54265 -21.06459 -0 0 12.80458 -11.44554 9.104083 6.417929 5.766223 -22.56682 -3.517744 -93.01206 25.61884 22.08338 0 0 -18.86944 6.395623 16.99822 6.515084
0.965245 103.3258 3.511485 0.6822894 -1.142004 0.4990266 3.391162 -21.40093 7.413568 -0 37.49043 -0 -6.284903 -12.1879 -3.625945 -6.902786 11.69283 -22.07675 -0 6.405385 -0 5.758499 -19.72953 24.15788 -1.235079 -2.080967 3.776684 2.650377 10.04985 -8.113718 0.7911684 21.52669 6.76952 4.042698 -25.18379 7.461668 3.961121 -19.44284 11.68242 88.69326 31.74491 -21.47565 -0 0 12.47108 -11.15382 9.031557 6.240102 5.820682 -22.64572 -3.479649 -92.8544 25.85726 21.73194 0 0 -19.27496 6.397503 17.04758 6.54728
1.179714 102.9993 5.402869 0.5218403 -1.00668 0.7301441 3.523292 -23.43109 6.40526 -0 33.70006 -0 -6.494271 -11.08513 -3.649703 -6.494015 13.11982 -21.03872 -0 5.91018 -0 5.139745 -20.29816 22.93399 -1.278359 -2.031848 3.671848 2.696075 9.915756 -8.162027 0.805415 21.55881 6.802784 4.050726 -25.20815 7.517958 4.037722 -19.19766 11.62837 88.79097 31.93569 -21.71996 -0 0 12.1748 -10.9024 8.942221 6.111995 5.859713 -22.61309 -3.407439 -92.69364 26.16547 21.33586 0 0 -19.55305 6.274153 17.03646 6.721807
1.332839 102.4466 7.691516 0.3496128 -0.8688457 0.979802 3.640504 -25.44443 5.357422 -0 29.63677 -0 -6.730119 -10.00379 -3.657412 -6.08403 14.49834 -19.94922 -0 5.483052 -0 4.475714 -20.82972 21.65685 -1.319974 -1.991469 3.54134 2.759271 9.785099 -8.244156 0.8134746 21.58481 6.845882 4.064981 -25.25664 7.57882 4.118236 -18.92089 11.57516 88.96896 32.13539 -22.0916 -0 0 11.78911 -10.61207 8.850863 5.94332 5.915585 -22.63146 -3.346617 -92.47238 26.47363 20.84209 0 0 -19.95136 6.201886 17.04421 6.837305
1.42146 101.6535 10.47534 0.1661884 -0.7965249 1.256067 3.690355 -27.56099 4.126785 -0 25.24619 -0 -6.918297 -8.61549 -3.692405 -5.659898 16.00308 -18.61031 -0 5.324909 -0 3.58527 -21.33752 20.11145 -1.366733 -1.937227 3.400552 2.816899 9.64237 -8.319019 0.8288667 21.62284 6.885469 4.072895 -25.27379 7.642866 4.191702 -18.60968 11.51171 89.15311 32.31588 -22.4584 -0 0 11.3719 -10.33813 8.759598 5.779825 5.974064 -22.63577 -3.284568 -92.20685 26.78855 20.26879 0 0 -20.36033 6.116425 17.0335 6.963167
